<?xml version="1.0" standalone="no"?>
<!DOCTYPE svg PUBLIC "-//W3C//DTD SVG 20010904//EN"
 "http://www.w3.org/TR/2001/REC-SVG-20010904/DTD/svg10.dtd">
<svg version="1.0" xmlns="http://www.w3.org/2000/svg"
 width="275.000000pt" height="183.000000pt" viewBox="0 0 275.000000 183.000000"
 preserveAspectRatio="xMidYMid meet">

<g transform="translate(0.000000,183.000000) scale(0.100000,-0.100000)"
fill="#000000" stroke="none">
<path d="M2390 1735 c0 -25 4 -45 9 -45 5 0 8 12 5 28 l-4 27 21 -27 c29 -38
39 -35 39 12 0 22 -4 40 -10 40 -5 0 -10 -12 -10 -27 l0 -28 -20 33 c-11 17
-22 32 -25 32 -3 0 -5 -20 -5 -45z"/>
<path d="M2567 1773 c-14 -13 -6 -42 13 -48 11 -3 20 -11 20 -17 0 -6 -9 -8
-20 -5 -21 5 -28 -7 -10 -18 16 -10 49 14 47 34 0 11 -4 19 -7 19 -18 -2 -30
3 -30 13 0 6 7 9 15 5 8 -3 15 -1 15 3 0 5 -7 12 -16 15 -19 7 -19 7 -27 -1z"/>
<path d="M1680 1755 c0 -8 9 -20 20 -27 26 -17 25 -26 -2 -31 -20 -4 -19 -4 5
-6 33 -1 37 23 7 41 -26 17 -25 26 3 31 19 4 18 4 -5 6 -19 1 -28 -4 -28 -14z"/>
<path d="M1760 1750 c-15 -28 4 -60 35 -60 26 0 43 35 31 65 -8 22 -53 19 -66
-5z m55 -20 c0 -29 -32 -41 -41 -16 -9 24 4 48 23 44 12 -2 18 -12 18 -28z"/>
<path d="M1862 1733 c-2 -41 -1 -43 26 -42 22 1 23 2 5 6 -17 3 -23 13 -26 41
l-4 37 -1 -42z"/>
<path d="M1934 1756 c-12 -32 0 -61 28 -64 34 -4 54 27 38 58 -12 23 -58 27
-66 6z m51 -26 c0 -29 -32 -41 -41 -16 -9 24 4 48 23 44 12 -2 18 -12 18 -28z"/>
<path d="M2069 1746 c-15 -33 2 -56 43 -56 28 0 29 2 26 38 -3 32 -7 37 -30
40 -22 3 -30 -2 -39 -22z m59 -15 c2 -15 0 -21 -7 -17 -6 4 -11 2 -11 -3 0
-16 -20 -13 -26 4 -9 23 4 47 23 43 10 -2 20 -14 21 -27z"/>
<path d="M2173 1735 c2 -34 6 -41 26 -43 13 -2 28 2 32 10 12 18 11 68 -1 68
-5 0 -10 -16 -10 -36 0 -28 -3 -35 -17 -32 -11 2 -20 16 -25 38 l-6 35 1 -40z"/>
<path d="M2260 1730 c0 -22 5 -40 10 -40 6 0 10 18 10 40 0 22 -4 40 -10 40
-5 0 -10 -18 -10 -40z"/>
<path d="M2310 1730 c0 -39 1 -40 33 -39 21 1 25 3 12 6 -28 7 -43 23 -22 23
9 0 17 5 17 10 0 6 -4 10 -10 10 -17 0 -11 18 8 23 10 3 6 5 -10 6 -26 1 -28
-2 -28 -39z"/>
<path d="M2488 1742 c-6 -42 0 -52 33 -52 17 0 28 4 24 10 -3 5 -12 7 -19 4
-8 -3 -17 -1 -21 5 -3 6 1 11 9 11 22 0 20 18 -1 23 -15 3 -14 6 7 15 l25 11
-26 0 c-22 1 -27 -4 -31 -27z"/>
<path d="M2428 1614 c-2 -5 -1 -29 3 -54 3 -25 7 -36 9 -25 1 11 2 25 1 30 -1
6 9 -2 22 -18 13 -15 26 -24 30 -21 11 11 8 84 -3 84 -5 0 -10 -10 -10 -22 -1
-22 -2 -22 -24 6 -13 15 -25 24 -28 20z"/>
<path d="M1809 1583 c-5 -16 -12 -34 -14 -40 -2 -7 0 -13 4 -13 5 0 11 6 14
13 3 9 9 9 26 -1 11 -7 21 -10 21 -8 0 9 -31 76 -35 76 -3 0 -10 -12 -16 -27z
m26 -13 c3 -5 -1 -10 -10 -10 -9 0 -13 5 -10 10 3 6 8 10 10 10 2 0 7 -4 10
-10z"/>
<path d="M1889 1598 c0 -7 -2 -20 -4 -29 -1 -9 1 -23 6 -30 7 -11 9 -10 9 4 0
22 9 22 25 0 10 -14 12 -10 11 23 -1 32 -5 40 -23 42 -14 2 -23 -2 -24 -10z
m33 -13 c0 -5 -5 -11 -11 -13 -6 -2 -11 4 -11 13 0 9 5 15 11 13 6 -2 11 -8
11 -13z"/>
<path d="M1970 1564 c0 -26 3 -44 8 -40 4 4 8 12 8 17 1 5 2 12 3 17 1 4 10
-3 19 -16 l18 -24 0 44 c-1 39 -3 43 -28 46 -27 3 -28 2 -28 -44z m38 17 c3
-8 -1 -12 -9 -9 -7 2 -15 10 -17 17 -3 8 1 12 9 9 7 -2 15 -10 17 -17z"/>
<path d="M2051 1566 c2 -25 6 -43 11 -40 12 8 10 84 -2 84 -7 0 -10 -19 -9
-44z"/>
<path d="M2100 1567 c0 -38 3 -43 25 -45 31 -2 33 13 3 22 -22 7 -22 7 -3 16
11 5 14 9 8 9 -19 1 -15 29 5 34 10 3 6 5 -10 6 -26 1 -28 -1 -28 -42z"/>
<path d="M2174 1598 c-4 -6 2 -19 14 -29 28 -22 28 -29 0 -29 -20 -1 -21 -2
-6 -10 20 -12 48 -3 48 16 0 7 -9 18 -20 24 -23 12 -27 35 -5 26 8 -3 15 -1
15 4 0 14 -37 12 -46 -2z"/>
<path d="M2256 1594 c-11 -30 -6 -53 15 -64 27 -15 49 -6 49 20 0 14 -6 20
-22 19 -13 0 -17 -3 -10 -6 16 -6 15 -23 -2 -23 -19 0 -29 30 -15 47 7 8 18
12 26 9 7 -3 13 -1 13 4 0 17 -47 11 -54 -6z"/>
<path d="M2345 1570 c-10 -22 -15 -44 -10 -48 4 -4 10 -1 12 6 6 15 43 16 43
0 0 -8 3 -9 11 -1 7 7 5 21 -7 47 -10 20 -21 36 -24 36 -4 0 -15 -18 -25 -40z
m30 0 c3 -5 1 -10 -4 -10 -6 0 -11 5 -11 10 0 6 2 10 4 10 3 0 8 -4 11 -10z"/>
<path d="M1571 1445 c-1 -5 6 -28 14 -50 8 -24 14 -32 15 -20 0 11 7 31 16 43
9 13 14 26 11 29 -3 2 -11 -5 -17 -18 l-12 -22 -14 24 c-7 13 -13 20 -13 14z"/>
<path d="M1654 1436 c-3 -8 -4 -27 -2 -43 2 -23 8 -28 33 -30 20 -1 23 0 8 4
-27 5 -30 30 -5 36 16 4 16 5 0 6 -10 0 -18 8 -18 17 0 10 6 14 15 10 8 -3 15
-1 15 4 0 16 -40 12 -46 -4z"/>
<path d="M1737 1444 c-11 -12 -8 -86 3 -79 6 3 10 15 10 26 0 18 3 17 25 -8
l24 -28 -1 50 c0 28 -3 38 -5 23 -5 -35 -14 -35 -34 -3 -8 14 -18 22 -22 19z"/>
<path d="M1830 1410 c0 -44 20 -61 49 -43 38 24 17 83 -31 83 -14 0 -18 -8
-18 -40z m54 5 c6 -16 -21 -48 -33 -41 -4 3 -6 18 -3 35 4 30 25 34 36 6z"/>
<path d="M1932 1438 c-7 -7 -12 -21 -12 -33 0 -46 53 -62 71 -21 21 45 -26 87
-59 54z m48 -17 c14 -26 -15 -58 -36 -40 -17 14 -18 31 -2 47 17 17 26 15 38
-7z"/>
<path d="M2060 1404 c0 -49 12 -51 24 -3 4 18 1 31 -9 39 -13 11 -15 6 -15
-36z"/>
<path d="M2108 1425 c-22 -29 -23 -39 -3 -31 10 4 15 -1 15 -15 0 -11 5 -17
10 -14 10 6 9 70 -1 79 -2 2 -12 -6 -21 -19z"/>
<path d="M2166 1438 c-19 -40 12 -89 48 -75 11 5 16 19 16 48 0 46 -9 48 -14
3 -2 -16 -4 -32 -5 -36 0 -4 -8 -5 -15 -2 -8 3 -16 22 -18 42 -3 27 -6 33 -12
20z"/>
<path d="M2265 1420 c8 -16 15 -37 15 -47 0 -10 9 2 20 26 21 46 19 67 -3 36
-13 -16 -14 -16 -20 -1 -4 9 -11 16 -17 16 -6 0 -4 -12 5 -30z"/>
<path d="M2380 1405 c0 -44 1 -45 31 -45 17 0 28 4 24 10 -3 6 -13 10 -21 10
-9 0 -14 11 -14 35 0 19 -4 35 -10 35 -5 0 -10 -20 -10 -45z"/>
<path d="M2457 1443 c-2 -5 -3 -24 -3 -43 1 -31 5 -35 29 -38 15 -2 27 1 27 7
0 6 -9 11 -20 11 -25 0 -26 17 -2 23 16 4 16 5 0 6 -25 1 -23 21 2 21 11 0 20
5 20 10 0 12 -47 14 -53 3z"/>
<path d="M2537 1443 c-11 -10 -8 -93 3 -93 6 0 10 23 10 50 0 51 -1 55 -13 43z"/>
<path d="M2579 1429 c-25 -48 28 -91 65 -53 21 20 20 37 -2 57 -25 23 -49 21
-63 -4z m59 -22 c4 -20 -25 -34 -40 -19 -15 15 -1 44 19 40 10 -2 19 -11 21
-21z"/>
<path d="M2674 1435 c-4 -9 4 -23 17 -35 l24 -19 -23 -1 c-13 0 -20 -4 -17
-10 10 -16 45 -12 52 6 4 11 -2 23 -18 35 -20 15 -21 19 -6 19 9 0 17 5 17 10
0 16 -40 12 -46 -5z"/>
<path d="M852 1313 c2 -13 -7 -19 -32 -25 -81 -17 -96 -21 -112 -36 -14 -12
-15 -18 -6 -29 10 -13 13 -13 22 -1 15 20 51 38 73 37 15 0 15 -2 3 -7 -29
-13 -57 -37 -69 -59 -14 -28 -35 -30 -26 -4 3 11 1 22 -5 26 -6 3 -10 -3 -10
-17 0 -13 -5 -30 -10 -38 -8 -12 -10 -12 -10 5 0 14 -5 10 -19 -15 -11 -22
-15 -37 -9 -41 6 -4 5 -8 -2 -11 -22 -7 -2 -57 38 -94 20 -19 42 -32 48 -30 7
3 11 -9 11 -32 -1 -52 22 -92 66 -115 37 -19 38 -22 32 -56 -4 -20 -7 -59 -6
-87 1 -35 -4 -56 -14 -64 -8 -7 -12 -17 -9 -22 4 -6 -21 -7 -67 -2 -93 10
-134 10 -234 1 -59 -5 -76 -4 -65 4 12 9 11 10 -7 6 -13 -3 -23 -2 -23 3 0 9
-90 27 -181 36 -66 6 -67 6 -106 -30 -22 -19 -57 -41 -79 -48 l-39 -13 -3 -62
-3 -61 38 10 c21 5 48 9 61 9 12 0 22 3 22 8 0 14 68 4 85 -13 20 -20 32 -21
16 -2 -9 11 -6 15 16 21 15 3 30 11 34 16 3 6 15 6 30 0 16 -6 31 -5 42 1 12
6 23 5 38 -5 15 -11 17 -16 7 -20 -7 -3 -2 -6 13 -6 14 -1 30 -6 37 -13 13
-13 27 -5 18 10 -3 5 -23 18 -43 28 -35 17 -36 19 -15 22 30 5 75 -14 98 -39
16 -18 16 -19 -2 -20 -18 0 -18 -1 1 -9 11 -5 31 -8 45 -8 l25 0 -25 8 c-30
10 -22 12 47 12 28 0 60 -5 71 -11 28 -15 75 -77 100 -131 11 -25 43 -69 72
-97 64 -64 53 -68 -26 -10 -43 32 -67 59 -89 102 -41 80 -87 116 -145 114 -25
-1 -54 1 -65 5 -19 6 -19 6 0 -4 17 -9 20 -20 19 -58 -2 -62 -2 -62 -18 -56
-8 3 -17 1 -21 -5 -4 -7 7 -11 29 -12 48 -2 53 -3 62 -11 4 -5 2 -8 -5 -8 -7
0 -9 -5 -6 -10 3 -6 16 -10 28 -10 20 -1 20 -2 4 -11 -10 -6 -23 -7 -33 -1
-22 12 -52 4 -59 -17 -7 -23 -65 -45 -65 -25 0 8 -10 14 -22 14 -22 -1 -22 -2
-5 -14 15 -11 15 -15 3 -19 -9 -4 -17 2 -21 14 -4 11 -17 26 -30 35 -32 21
-39 63 -11 75 19 8 18 9 -5 4 -21 -4 -28 1 -37 20 -7 15 -20 25 -32 25 -11 0
-20 7 -20 15 0 17 -18 19 -40 5 -13 -8 -13 -10 2 -10 31 0 29 -19 -4 -33 -74
-32 -85 -35 -99 -26 -24 15 -99 11 -99 -5 0 -8 6 -17 13 -19 6 -3 1 -6 -13 -7
-25 -1 -24 -1 5 -14 l30 -13 -28 -13 c-27 -13 -27 -14 -27 -117 l0 -103 585 0
c434 1 585 4 585 12 0 9 3 9 12 0 15 -15 51 -15 66 0 9 9 12 9 13 -2 0 -11 2
-10 7 2 7 16 10 16 36 3 30 -16 165 -20 200 -6 19 7 18 8 -5 14 -20 6 -21 9
-9 17 19 13 33 13 25 0 -3 -5 -1 -10 4 -10 6 0 11 -7 11 -15 0 -19 105 -22
114 -2 5 9 7 9 12 0 4 -9 35 -13 102 -13 97 0 115 4 52 13 -19 3 -36 6 -37 7
-2 2 -12 4 -23 5 -11 1 -24 3 -30 4 -17 2 -11 21 7 21 15 0 14 2 -3 15 -18 14
-17 14 10 5 21 -8 33 -7 45 2 13 10 14 10 4 -2 -7 -8 -13 -18 -13 -22 0 -12
38 -10 42 3 5 14 38 0 38 -17 0 -8 5 -14 11 -14 5 0 8 -3 6 -7 -3 -5 11 -9 31
-10 30 -2 33 -1 20 8 -10 5 -18 17 -18 24 0 8 -4 15 -9 15 -5 0 -11 8 -14 19
-3 14 0 17 14 14 10 -3 16 -10 13 -15 -3 -5 0 -8 7 -7 8 1 22 -1 32 -6 10 -4
23 -2 31 4 10 8 16 9 21 1 3 -5 -1 -10 -9 -10 -9 0 -16 -7 -16 -16 0 -8 -4
-12 -10 -9 -5 3 -10 1 -10 -5 0 -7 7 -10 15 -7 8 4 17 2 20 -3 4 -6 67 -10
143 -10 101 0 133 3 122 11 -12 9 -11 9 5 3 11 -5 127 -10 258 -11 l237 -3 0
65 c0 69 -15 90 -45 65 -8 -7 -15 -9 -15 -5 0 4 -7 2 -15 -5 -9 -7 -19 -10
-22 -6 -4 4 -2 11 5 15 24 15 -14 34 -52 27 -40 -8 -58 9 -21 18 13 3 56 -3
95 -13 l70 -20 0 40 c0 37 -2 39 -30 39 -16 0 -30 5 -30 10 0 6 14 10 30 10
30 0 30 0 30 56 l0 56 -29 -7 c-17 -3 -40 -1 -52 5 -17 9 -23 9 -29 0 -6 -9
-31 -11 -89 -8 -45 3 -84 1 -87 -4 -3 -4 -24 -8 -46 -8 l-41 0 7 56 c4 34 3
53 -3 50 -5 -4 -13 -1 -16 4 -5 8 -13 6 -26 -6 -12 -11 -19 -13 -19 -5 0 7 -4
9 -10 6 -5 -3 -10 0 -11 7 0 7 -5 4 -10 -7 -6 -11 -22 -29 -36 -39 -15 -11
-23 -14 -19 -8 4 7 2 12 -5 12 -8 0 -9 12 -5 38 5 27 4 33 -3 22 -6 -8 -11
-23 -11 -33 0 -10 -5 -15 -10 -12 -6 3 -17 -1 -26 -9 -8 -9 -21 -16 -28 -16
-20 0 -52 -40 -40 -48 7 -4 2 -15 -13 -30 -23 -23 -33 -17 -10 7 10 11 10 14
0 18 -7 3 -13 9 -13 14 0 6 6 7 13 3 6 -4 9 -4 5 1 -4 4 -1 22 6 39 12 29 12
32 -5 32 -10 0 -16 -2 -13 -5 2 -2 -6 -16 -18 -30 -13 -14 -16 -20 -8 -13 22
19 35 14 16 -6 -16 -18 -18 -17 -57 20 -29 28 -46 37 -60 33 -13 -5 -19 -2
-17 7 2 8 -5 12 -20 11 -13 -2 -21 1 -17 7 3 6 -1 7 -9 4 -9 -3 -13 -11 -9
-18 3 -6 0 -6 -8 2 -11 10 -11 17 3 40 9 15 14 33 10 39 -13 20 -136 73 -146
63 -7 -7 -2 -10 13 -10 13 0 20 -4 15 -11 -3 -6 -15 -8 -26 -6 -15 4 -18 1
-13 -14 4 -10 2 -19 -4 -19 -5 0 -12 8 -14 17 -4 16 -5 16 -6 -1 -1 -11 -6
-16 -15 -13 -8 3 -16 1 -18 -4 -5 -16 -90 7 -106 28 -10 14 -15 15 -21 5 -6
-9 -19 -11 -44 -7 -42 8 -76 30 -64 41 4 5 12 2 17 -6 6 -10 27 -15 63 -15 30
0 60 -5 68 -11 8 -7 29 -15 46 -19 28 -6 32 -4 27 10 -4 9 -18 21 -31 26 -13
5 -23 15 -22 21 1 7 1 24 0 37 -1 20 -5 22 -27 17 -15 -4 -23 -3 -20 2 3 6 -2
12 -12 16 -130 46 -115 33 -157 131 -15 33 -44 96 -65 140 -37 77 -61 141 -74
197 -3 14 -26 44 -51 66 -42 37 -57 62 -36 62 4 0 6 12 3 26 -3 17 -9 23 -19
20 -8 -3 -12 -2 -9 2 6 10 -60 10 -69 1 -3 -4 -27 -2 -52 2 -30 6 -51 5 -57
-1 -7 -7 7 -10 42 -10 45 0 54 -3 61 -22 6 -17 3 -26 -13 -39 -19 -16 -23 -16
-38 -2 -11 10 -18 11 -18 5 0 -6 -7 -9 -16 -5 -13 5 -15 2 -9 -15 5 -17 2 -22
-12 -22 -17 -1 -17 -2 -1 -13 11 -9 14 -18 7 -28 -5 -8 -9 -10 -9 -5 0 5 -7 3
-15 -4 -11 -9 -19 -9 -28 -2 -20 17 -75 24 -83 10 -4 -6 -3 -8 3 -5 6 4 14 0
17 -9 9 -24 8 -26 -14 -14 -11 6 -20 19 -20 28 0 10 -9 28 -20 39 -16 18 -17
22 -4 27 9 3 34 6 57 6 39 -1 41 -2 23 -15 -16 -12 -17 -17 -6 -30 16 -19 30
-19 30 -1 0 8 7 17 16 20 11 4 14 13 10 31 -4 17 -2 26 6 26 7 1 20 3 28 4 8
1 32 3 53 4 61 2 43 22 -20 22 -91 -1 -92 -1 -103 20 -13 24 -32 25 -28 2z
m142 -129 c3 -8 2 -12 -4 -9 -6 3 -10 10 -10 16 0 14 7 11 14 -7z m-324 -54
c0 -5 -5 -10 -11 -10 -5 0 -7 5 -4 10 3 6 8 10 11 10 2 0 4 -4 4 -10z m353 -4
c3 3 14 1 24 -6 17 -10 16 -11 -3 -5 -19 5 -20 2 -16 -49 l4 -55 -44 42 c-25
23 -43 47 -41 53 6 17 46 33 59 23 6 -5 13 -6 17 -3z m178 -120 c21 -46 68
-133 104 -192 65 -109 78 -144 51 -144 -20 0 -46 -39 -39 -59 4 -11 1 -10 -10
4 -8 11 -19 17 -23 12 -4 -4 -2 -7 4 -7 7 0 12 -4 12 -8 0 -5 -15 -6 -32 -4
-53 6 -72 6 -93 -2 l-20 -8 20 17 c15 12 30 14 59 9 47 -8 42 11 -7 22 -40 10
-57 7 -79 -13 -12 -11 -15 -20 -8 -28 11 -14 3 -25 -18 -25 -9 0 -12 6 -8 16
3 8 2 13 -3 10 -4 -3 -13 36 -19 86 -9 76 -9 95 3 119 19 36 19 65 -1 81 -70
58 -74 87 -14 111 39 15 68 56 54 78 -3 5 2 9 11 9 11 0 30 -29 56 -84z m-286
-300 c11 -32 11 -34 -6 -23 -12 7 -19 23 -19 41 0 35 9 28 25 -18z m438 -61
c-3 -9 -8 -14 -10 -11 -3 3 -2 9 2 15 9 16 15 13 8 -4z m-1048 -25 c3 -5 1
-10 -4 -10 -6 0 -11 5 -11 10 0 6 2 10 4 10 3 0 8 -4 11 -10z m540 -28 c-3 -3
-11 0 -18 7 -9 10 -8 11 6 5 10 -3 15 -9 12 -12z m525 8 c8 -5 11 -10 5 -10
-5 0 -17 5 -25 10 -8 5 -10 10 -5 10 6 0 17 -5 25 -10z m50 -10 c0 -5 -2 -10
-4 -10 -3 0 -8 5 -11 10 -3 6 -1 10 4 10 6 0 11 -4 11 -10z m-55 -28 l20 -24
-28 13 c-15 7 -27 15 -27 19 0 7 13 22 14 18 1 -2 10 -14 21 -26z m-1025 14
c0 -2 -7 -6 -15 -10 -8 -3 -15 -1 -15 4 0 6 7 10 15 10 8 0 15 -2 15 -4z m359
-27 c-12 -7 -12 -9 0 -9 8 0 11 -3 8 -6 -4 -4 -12 -3 -19 2 -17 13 -92 12 -95
-1 -1 -6 16 -9 38 -8 34 2 39 0 29 -13 -7 -7 -20 -14 -30 -14 -10 0 -20 -7
-24 -15 -3 -8 -16 -15 -28 -15 -19 0 -20 2 -8 10 8 5 10 10 3 10 -6 0 -9 9 -6
20 3 12 0 20 -6 20 -7 0 -10 -3 -8 -7 3 -5 -25 -9 -62 -9 -53 -1 -68 1 -68 13
0 11 9 13 39 9 22 -3 38 -1 38 4 0 6 11 8 25 4 15 -4 25 -2 25 4 0 12 85 20
134 13 20 -2 24 -6 15 -12z m551 -14 c11 3 20 2 20 -3 0 -6 -15 -12 -34 -14
-22 -2 -32 0 -28 7 4 5 6 19 4 30 -1 17 0 16 8 -3 7 -17 15 -22 30 -17z m-875
14 c4 -6 13 -8 21 -5 8 3 14 -1 14 -9 0 -9 -10 -15 -26 -15 -14 0 -23 -4 -20
-8 3 -4 -21 -9 -52 -10 -39 -1 -52 2 -42 8 8 5 28 10 44 10 20 0 27 4 23 14
-10 24 24 38 38 15z m422 -15 c-3 -3 -12 -4 -19 -1 -8 3 -5 6 6 6 11 1 17 -2
13 -5z m-53 -23 c4 -5 -3 -7 -14 -4 -23 6 -26 13 -6 13 8 0 17 -4 20 -9z
m1041 -11 c9 -14 -33 -22 -80 -14 -53 7 -53 16 -1 16 20 0 36 4 36 8 0 10 38
1 45 -10z m-147 -15 c25 -4 54 -18 70 -33 17 -16 21 -23 10 -19 -10 4 -18 3
-18 -1 0 -4 -14 -7 -30 -7 -27 0 -28 1 -13 13 10 7 23 10 30 8 7 -3 13 -2 13
3 0 9 -48 21 -85 21 -13 0 -26 6 -28 13 -4 9 -7 9 -15 -1 -7 -10 -11 -10 -22
3 -11 13 -10 15 4 9 9 -4 16 -1 16 6 0 9 4 9 13 2 6 -5 31 -13 55 -17z m-166
5 c11 0 16 -6 13 -20 -3 -17 0 -19 20 -14 18 4 27 1 31 -10 10 -25 -1 -29 -33
-13 -16 9 -38 15 -48 14 -12 -1 -19 3 -17 11 1 8 -7 16 -18 19 -11 3 -17 10
-14 15 4 5 16 7 28 4 11 -3 29 -6 38 -6z m316 -17 c-22 -6 -24 -33 -2 -33 10
0 14 -6 11 -14 -4 -10 -1 -13 7 -10 8 3 17 1 21 -5 13 -23 -35 -10 -61 16 -25
25 -26 27 -8 40 10 7 25 12 33 12 13 -1 12 -2 -1 -6z m-213 -23 c3 -5 1 -10
-4 -10 -6 0 -11 5 -11 10 0 6 2 10 4 10 3 0 8 -4 11 -10z m-141 -16 c9 -3 14
-9 12 -13 -5 -7 30 -9 152 -12 39 0 70 -5 67 -9 -3 -5 13 -16 35 -26 22 -10
40 -22 40 -27 0 -4 -5 -5 -11 -2 -6 4 -17 -1 -25 -11 -14 -17 -15 -17 -10 -2
3 10 0 20 -6 24 -6 4 -8 3 -4 -4 9 -15 -5 -21 -29 -11 -18 7 -18 8 -2 8 16 1
17 3 3 16 -8 8 -32 15 -56 15 -22 0 -54 7 -70 15 -24 12 -34 13 -49 3 -16 -10
-25 -9 -45 2 -14 7 -26 19 -26 27 0 15 2 15 24 7z m486 -14 c0 -5 -5 -10 -11
-10 -14 0 -49 -39 -49 -54 0 -12 -20 14 -20 26 0 4 17 16 38 27 44 24 42 23
42 11z m-550 -20 c0 -5 -7 -7 -15 -4 -8 4 -12 10 -9 15 6 11 24 2 24 -11z
m1000 -23 c-10 -49 -13 -52 -50 -36 -25 12 -30 19 -28 44 2 29 4 31 43 31 l42
0 -7 -39z m-90 13 c0 -5 -5 -10 -11 -10 -5 0 -7 5 -4 10 3 6 8 10 11 10 2 0 4
-4 4 -10z m-1053 -16 c-3 -3 -12 -4 -19 -1 -8 3 -5 6 6 6 11 1 17 -2 13 -5z
m143 -49 c0 -12 -29 -3 -34 10 -4 13 -2 14 14 5 11 -6 20 -13 20 -15z m175 5
c3 -6 -4 -10 -17 -10 -18 0 -20 2 -8 10 19 12 18 12 25 0z m605 0 c0 -5 -2
-10 -4 -10 -3 0 -8 5 -11 10 -3 6 -1 10 4 10 6 0 11 -4 11 -10z m30 0 c0 -5
-5 -10 -11 -10 -5 0 -7 5 -4 10 3 6 8 10 11 10 2 0 4 -4 4 -10z m-123 -29 c1
-16 -4 -19 -27 -16 -16 2 -32 0 -35 -6 -4 -5 -10 -9 -16 -9 -5 0 -4 8 2 18 8
12 21 18 38 15 14 -2 20 0 13 3 -16 7 -6 25 11 18 7 -2 13 -13 14 -23z m-310
13 c-3 -3 -12 -4 -19 -1 -8 3 -5 6 6 6 11 1 17 -2 13 -5z m38 -14 c3 -5 1 -10
-4 -10 -6 0 -11 5 -11 10 0 6 2 10 4 10 3 0 8 -4 11 -10z m335 0 c-8 -5 -19
-10 -25 -10 -5 0 -3 5 5 10 8 5 20 10 25 10 6 0 3 -5 -5 -10z m-830 -12 c0 -4
7 -8 15 -8 8 0 15 -4 15 -10 0 -13 -17 -13 -25 0 -4 6 -15 8 -26 5 -13 -5 -17
-2 -14 8 6 15 35 19 35 5z m410 -18 c19 -7 54 -19 78 -27 29 -11 42 -21 42
-34 0 -11 -4 -19 -10 -19 -5 0 -10 4 -10 9 0 4 -12 7 -27 4 -24 -3 -25 -2 -8
6 11 5 16 10 10 11 -14 2 -29 6 -103 25 -35 10 -66 14 -70 11 -9 -10 20 -26
32 -19 5 3 6 2 3 -4 -3 -5 -19 -8 -35 -5 -17 2 -39 -1 -50 -7 -17 -9 -20 -8
-17 7 2 9 4 20 4 24 1 4 13 6 29 5 15 -1 26 3 25 9 -1 7 8 9 24 6 21 -4 25 -2
20 11 -5 13 -3 15 11 8 9 -4 33 -14 52 -21z m528 -5 c-3 -3 -9 2 -12 12 -6 14
-5 15 5 6 7 -7 10 -15 7 -18z m-52 -14 c-4 -6 -13 -11 -19 -10 -9 0 -9 2 0 5
7 3 9 13 6 22 -5 13 -3 14 7 5 7 -6 9 -16 6 -22z m214 19 c0 -5 -8 -10 -17
-10 -15 0 -16 2 -3 10 19 12 20 12 20 0z m-1265 -10 c17 -7 16 -9 -10 -9 -16
0 -37 4 -45 9 -12 8 -10 10 10 9 14 0 34 -4 45 -9z m364 -11 c-14 -8 -29 -3
-29 11 0 4 9 6 21 3 15 -4 17 -8 8 -14z m-1399 7 c0 -2 -7 -6 -15 -10 -8 -3
-15 -1 -15 4 0 6 7 10 15 10 8 0 15 -2 15 -4z m1177 -27 c-10 -16 -9 -21 2
-28 8 -5 20 -7 28 -4 7 3 13 1 13 -3 0 -5 14 -15 30 -22 17 -8 28 -18 24 -23
-3 -5 0 -9 5 -9 6 0 11 -8 11 -17 0 -13 3 -14 8 -6 7 10 12 10 27 -1 11 -8 24
-12 30 -9 7 2 24 -1 38 -6 30 -11 60 -5 51 11 -4 7 0 7 12 0 11 -6 24 -11 29
-12 30 -5 8 -14 -32 -13 -9 1 -10 -4 -2 -18 10 -20 0 -26 -17 -9 -14 14 -74
31 -74 20 0 -4 8 -11 17 -14 12 -5 14 -9 5 -18 -9 -9 -15 -9 -24 0 -7 7 -20
12 -31 12 -10 0 -16 4 -12 9 8 13 -32 34 -48 25 -6 -4 -9 -4 -5 1 4 4 0 14
-10 21 -14 11 -15 15 -3 23 19 12 -31 44 -68 43 -24 0 -27 3 -23 24 4 22 1 24
-32 24 -25 0 -35 4 -30 11 3 6 19 9 35 7 16 -3 29 -1 29 3 0 5 7 6 15 3 11 -5
12 -9 2 -25z m863 25 c0 -7 -30 -37 -33 -33 -2 2 -9 12 -16 22 -12 15 -10 17
18 17 17 0 31 -3 31 -6z m95 -6 c5 4 5 1 1 -5 -4 -7 -4 -13 1 -13 4 0 19 -10
33 -21 14 -11 19 -17 11 -13 -10 5 -13 3 -9 -7 4 -10 -1 -15 -13 -16 -11 -1
-17 2 -14 6 9 15 -32 52 -50 45 -15 -6 -15 -4 -4 14 9 14 17 18 25 12 6 -6 15
-6 19 -2z m181 -12 c1 -1 -12 -11 -27 -24 -31 -25 -39 -24 -13 2 14 15 14 16
0 16 -9 0 -16 5 -16 10 0 8 47 4 56 -4z m-266 -16 c0 -5 -2 -10 -4 -10 -3 0
-8 5 -11 10 -3 6 -1 10 4 10 6 0 11 -4 11 -10z m-1535 -12 c17 1 16 0 -3 -8
-25 -10 -42 -6 -42 11 0 6 6 7 13 2 6 -4 21 -7 32 -5z m1464 8 c-2 -2 -17 -6
-34 -10 -22 -5 -26 -4 -15 4 14 9 59 15 49 6z m242 -5 c-12 -8 -12 -15 -4 -33
9 -20 8 -24 -8 -24 -12 0 -18 5 -14 14 3 7 5 22 5 33 0 11 7 19 18 19 14 0 14
-2 3 -9z m-1198 -8 c-7 -2 -19 -2 -25 0 -7 3 -2 5 12 5 14 0 19 -2 13 -5z
m381 1 c21 -8 21 -24 0 -24 -8 0 -13 4 -10 9 4 5 0 12 -6 14 -7 3 -10 6 -6 6
3 1 13 -2 22 -5z m156 -3 c0 -5 -10 -12 -22 -15 -22 -7 -22 -8 -4 -15 18 -7
18 -8 2 -14 -10 -4 -22 -7 -27 -7 -9 0 -1 28 14 48 11 14 37 16 37 3z m507 2
c-4 -3 -2 -12 4 -20 9 -10 8 -13 -5 -13 -9 0 -16 6 -16 13 0 14 9 27 18 27 3
0 2 -3 -1 -7z m43 -8 c0 -8 -4 -15 -9 -15 -5 0 -11 7 -15 15 -3 9 0 15 9 15 8
0 15 -7 15 -15z m-1192 -10 c-2 -1 -18 -5 -35 -8 -33 -7 -48 8 -15 15 16 4 56
-2 50 -7z m1070 -3 c-10 -2 -18 -8 -18 -13 0 -5 -16 -9 -36 -9 -31 0 -35 2
-24 14 6 8 17 13 25 10 7 -3 16 -1 19 4 3 6 16 7 29 4 18 -5 19 -7 5 -10z
m-398 -2 c0 -5 -7 -10 -16 -10 -8 0 -12 5 -9 10 3 6 10 10 16 10 5 0 9 -4 9
-10z m185 0 c3 -5 -1 -10 -9 -10 -8 0 -18 5 -21 10 -3 6 1 10 9 10 8 0 18 -4
21 -10z m472 -6 c3 -9 15 -20 27 -24 20 -8 20 -9 -4 -9 -17 -1 -29 7 -37 24
-6 14 -7 25 -2 25 5 0 12 -7 16 -16z m183 -15 c0 -6 -4 -7 -10 -4 -5 3 -10 11
-10 16 0 6 5 7 10 4 6 -3 10 -11 10 -16z m-2384 2 c11 9 14 8 14 -5 0 -9 -8
-16 -20 -16 -13 0 -20 6 -19 18 0 11 2 12 6 4 4 -10 8 -10 19 -1z m74 -2 c0
-5 -4 -7 -10 -4 -6 4 -10 -9 -11 -32 -1 -37 -2 -37 -8 -8 -7 29 2 55 20 55 5
0 9 -5 9 -11z m1025 1 c3 -5 1 -10 -4 -10 -6 0 -11 5 -11 10 0 6 2 10 4 10 3
0 8 -4 11 -10z m724 -11 c-16 -10 -23 -4 -14 10 3 6 11 8 17 5 6 -4 5 -9 -3
-15z m-952 5 c-3 -3 -12 -4 -19 -1 -8 3 -5 6 6 6 11 1 17 -2 13 -5z m916 -1
c4 8 6 6 6 -4 1 -9 25 -28 56 -43 50 -24 71 -46 45 -46 -5 0 -10 4 -10 9 0 5
-16 12 -35 15 -19 4 -35 10 -35 15 0 4 -16 15 -35 24 -19 9 -35 21 -35 27 0 7
6 8 19 0 14 -7 21 -6 24 3z m-1640 -23 c3 -10 -1 -24 -9 -30 -15 -13 -38 -4
-28 12 4 6 10 5 15 -3 6 -10 9 -8 9 9 0 15 -4 21 -12 16 -7 -4 -8 -3 -4 4 11
18 23 14 29 -8z m97 -1 c0 -5 -7 -9 -16 -9 -8 0 -12 -5 -9 -10 4 -6 11 -7 17
-4 7 4 8 2 4 -4 -10 -16 -36 -3 -36 19 0 13 5 17 17 12 12 -5 14 -3 8 7 -5 9
-4 11 3 6 7 -4 12 -11 12 -17z m55 -10 c0 -29 -27 -33 -31 -5 -2 11 0 24 3 28
9 17 28 1 28 -23z m1105 21 c-8 -5 -19 -10 -25 -10 -5 0 -3 5 5 10 8 5 20 10
25 10 6 0 3 -5 -5 -10z m-1323 -37 c-3 -10 -5 -4 -5 12 0 17 2 24 5 18 2 -7 2
-21 0 -30z m110 16 c1 -10 -3 -22 -9 -25 -6 -4 -8 -2 -4 4 3 6 2 13 -4 17 -14
9 -12 22 3 22 7 0 14 -8 14 -18z m1263 11 c0 -5 -10 -10 -22 -9 -22 0 -22 1
-3 9 11 5 21 9 23 9 1 1 2 -3 2 -9z m510 1 c0 -5 -9 -7 -20 -4 -11 3 -20 7
-20 9 0 2 9 4 20 4 11 0 20 -4 20 -9z m230 -4 c11 3 20 1 20 -4 0 -14 -43 -9
-46 6 -1 6 0 7 2 2 3 -5 14 -7 24 -4z m51 -36 c-7 -12 -17 -21 -24 -21 -8 0
-8 3 2 9 7 5 10 14 7 20 -10 16 4 35 16 23 6 -6 6 -17 -1 -31z m-1891 25 c0
-2 -7 -7 -16 -10 -8 -3 -12 -2 -9 4 6 10 25 14 25 6z m1725 -13 c-3 -8 -5 -19
-5 -24 0 -5 -8 -4 -19 3 -14 8 -16 14 -8 23 16 16 39 15 32 -2z m237 -28 c7
-5 25 -16 40 -24 27 -14 46 -41 28 -41 -5 0 -25 14 -43 30 -33 29 -65 41 -52
20 3 -5 2 -10 -4 -10 -6 0 -15 9 -21 20 -7 13 -7 20 -1 20 6 0 8 8 4 18 -5 15
-3 14 15 -3 12 -11 27 -24 34 -30z m266 31 c-2 -1 -10 -7 -18 -13 -13 -10 -16
-8 -17 6 -1 14 4 17 18 14 11 -3 18 -6 17 -7z m-572 -11 c9 -8 14 -15 12 -16
-18 -5 -68 -6 -68 -2 0 5 31 32 38 33 2 0 10 -7 18 -15z m-1026 -5 c0 -5 -5
-10 -11 -10 -5 0 -7 5 -4 10 3 6 8 10 11 10 2 0 4 -4 4 -10z m560 6 c0 -9 -30
-14 -35 -6 -4 6 3 10 14 10 12 0 21 -2 21 -4z m-630 -10 c0 -3 -4 -8 -10 -11
-5 -3 -10 -1 -10 4 0 6 5 11 10 11 6 0 10 -2 10 -4z m159 -14 c19 -9 37 -24
39 -32 4 -12 2 -13 -9 -2 -16 15 -56 16 -61 1 -5 -14 -38 0 -38 16 0 9 8 11
23 7 20 -5 21 -4 8 11 -17 21 -6 21 38 -1z m81 -2 c0 -5 -4 -10 -10 -10 -5 0
-10 5 -10 10 0 6 5 10 10 10 6 0 10 -4 10 -10z m990 6 c0 -3 -4 -8 -10 -11 -5
-3 -10 -1 -10 4 0 6 5 11 10 11 6 0 10 -2 10 -4z m-85 -26 c-3 -5 -10 -10 -16
-10 -5 0 -9 5 -9 10 0 6 7 10 16 10 8 0 12 -4 9 -10z m195 -14 c-1 -5 4 -13
12 -17 9 -6 9 -9 1 -9 -7 0 -17 10 -24 21 -8 16 -8 20 1 17 6 -2 11 -7 10 -12z
m-958 -13 c8 -10 6 -13 -5 -13 -9 0 -19 5 -22 10 -4 6 -10 8 -15 5 -5 -3 -11
-1 -15 5 -9 15 44 8 57 -7z"/>
<path d="M1675 260 c-3 -5 -1 -10 4 -10 6 0 11 5 11 10 0 6 -2 10 -4 10 -3 0
-8 -4 -11 -10z"/>
<path d="M2078 1266 c-7 -45 3 -66 31 -65 23 2 24 2 4 6 -27 5 -31 30 -5 36
16 4 16 5 0 6 -26 2 -22 19 5 23 20 3 20 4 -5 9 -22 5 -28 2 -30 -15z"/>
<path d="M2250 1245 c0 -43 1 -45 28 -44 23 2 24 2 5 6 -27 5 -31 30 -5 36 16
4 16 5 0 6 -26 2 -22 21 5 22 21 0 21 1 2 9 -33 14 -35 12 -35 -35z"/>
<path d="M2328 1278 c-2 -7 -1 -29 3 -48 6 -35 6 -35 8 -5 l2 30 20 -27 c29
-39 39 -35 37 12 -2 46 -18 66 -18 23 l-1 -28 -23 28 c-16 20 -25 25 -28 15z"/>
<path d="M1901 1238 c1 -24 3 -35 6 -25 2 9 10 17 17 17 18 0 35 21 29 36 -3
8 -16 14 -29 14 -22 0 -24 -4 -23 -42z m37 20 c-6 -18 -28 -21 -28 -4 0 9 7
16 16 16 9 0 14 -5 12 -12z"/>
<path d="M1983 1245 c2 -30 7 -41 21 -43 25 -5 37 10 40 47 3 41 -12 40 -16
-1 -4 -45 -31 -44 -40 2 l-6 35 1 -40z"/>
<path d="M2150 1245 c0 -24 5 -38 16 -42 26 -10 49 11 49 43 0 25 -4 29 -32
32 -32 3 -33 2 -33 -33z m56 10 c6 -16 -12 -45 -27 -45 -5 0 -9 14 -9 30 0 32
26 43 36 15z"/>
<path d="M661 1233 c0 -5 4 -17 9 -28 8 -17 8 -16 7 8 -1 15 -5 27 -9 27 -4 0
-8 -3 -7 -7z"/>
<path d="M1700 1080 c0 -39 1 -41 28 -38 24 3 27 7 27 38 0 31 -3 35 -27 38
-27 3 -28 1 -28 -38z m45 0 c0 -16 -6 -26 -17 -28 -14 -3 -18 3 -18 28 0 25 4
31 18 28 11 -2 17 -12 17 -28z"/>
<path d="M1790 1080 c0 -37 2 -40 28 -39 23 2 24 2 5 6 -27 5 -31 30 -5 36 16
4 16 5 0 6 -26 2 -22 19 5 24 19 4 18 4 -5 6 -26 1 -28 -2 -28 -39z"/>
<path d="M1864 1108 c-4 -7 2 -18 14 -26 27 -17 28 -29 5 -35 -14 -4 -13 -5 4
-6 32 -2 40 20 15 37 -27 17 -28 29 -4 35 13 4 12 5 -5 6 -12 0 -25 -4 -29
-11z"/>
<path d="M1942 1103 c-16 -30 3 -63 35 -62 l28 1 -25 7 c-34 9 -40 48 -8 60
l23 10 -22 0 c-12 1 -26 -7 -31 -16z"/>
<path d="M2023 1085 c2 -33 6 -41 24 -43 28 -4 49 39 33 66 -7 13 -9 8 -10
-21 0 -31 -3 -38 -17 -35 -11 2 -20 16 -25 38 l-6 35 1 -40z"/>
<path d="M2120 1080 c0 -36 3 -40 24 -40 28 0 34 11 28 52 -3 22 -10 28 -28
28 -21 0 -24 -5 -24 -40z m35 20 c3 -5 -1 -10 -9 -10 -9 0 -16 5 -16 10 0 6 4
10 9 10 6 0 13 -4 16 -10z m5 -35 c0 -8 -7 -15 -15 -15 -8 0 -15 7 -15 15 0 8
7 15 15 15 8 0 15 -7 15 -15z"/>
<path d="M2201 1078 c1 -24 3 -35 6 -25 5 21 12 21 32 3 14 -13 16 -11 16 22
0 33 -3 37 -28 40 -26 3 -27 2 -26 -40z m39 17 c0 -8 -7 -15 -15 -15 -8 0 -15
7 -15 15 0 8 7 15 15 15 8 0 15 -7 15 -15z"/>
<path d="M2293 1080 c0 -25 2 -35 4 -22 2 12 2 32 0 45 -2 12 -4 2 -4 -23z"/>
<path d="M2330 1081 c0 -23 5 -41 11 -41 6 0 9 7 5 15 -7 20 14 19 29 -2 10
-14 12 -10 11 23 -1 35 -4 39 -28 42 -27 3 -28 1 -28 -37z m40 14 c0 -8 -4
-15 -10 -15 -5 0 -10 7 -10 15 0 8 5 15 10 15 6 0 10 -7 10 -15z"/>
<path d="M2452 1080 c0 -38 2 -40 32 -39 23 1 25 3 9 6 -19 4 -23 11 -23 39 0
19 -4 34 -9 34 -6 0 -9 -18 -9 -40z"/>
<path d="M2530 1101 c-16 -32 4 -63 38 -59 24 3 27 7 27 38 0 31 -3 35 -27 38
-19 2 -30 -3 -38 -17z m55 -21 c0 -16 -6 -26 -18 -28 -19 -4 -32 20 -23 44 9
25 41 13 41 -16z"/>
<path d="M1822 923 c-2 -41 -1 -43 26 -42 22 1 23 2 5 6 -17 3 -23 13 -26 41
l-4 37 -1 -42z"/>
<path d="M1900 920 c0 -37 2 -40 28 -39 23 2 24 2 5 6 -27 5 -30 20 -5 26 16
4 16 5 0 6 -10 0 -18 7 -18 15 0 8 8 17 18 19 13 4 11 5 -5 6 -20 1 -23 -4
-23 -39z"/>
<path d="M1974 915 c0 -25 4 -45 8 -45 5 0 8 20 8 45 0 25 -3 45 -8 45 -4 0
-8 -20 -8 -45z"/>
<path d="M2020 940 c-12 -22 0 -55 22 -63 22 -7 48 13 48 36 0 45 -50 64 -70
27z m58 -13 c5 -23 -16 -47 -34 -40 -14 5 -19 44 -7 57 12 12 38 1 41 -17z"/>
<path d="M2114 948 c-4 -6 2 -19 14 -29 28 -22 27 -27 0 -32 -20 -4 -20 -4 4
-6 36 -1 44 14 18 36 -25 21 -25 30 -2 36 13 4 12 5 -5 6 -12 0 -25 -4 -29
-11z"/>
<path d="M2230 940 c-12 -23 2 -60 23 -60 8 0 8 3 -1 9 -8 4 -12 19 -10 32 4
32 42 33 46 2 2 -13 -1 -23 -7 -23 -6 0 -11 -4 -11 -10 0 -5 7 -10 15 -10 18
0 21 50 3 68 -18 18 -46 14 -58 -8z"/>
<path d="M2334 920 c1 -30 5 -35 29 -38 26 -3 27 -2 25 40 l-1 43 -4 -37 c-3
-29 -9 -38 -23 -38 -14 0 -20 9 -23 33 -4 32 -4 32 -3 -3z"/>
<path d="M2430 920 c0 -37 2 -40 28 -39 23 2 24 2 5 6 -25 5 -30 18 -10 26 10
4 10 6 0 6 -19 1 -15 29 5 34 13 4 11 5 -5 6 -20 1 -23 -4 -23 -39z"/>
<path d="M1601 753 c1 -27 3 -40 6 -30 2 9 8 17 12 17 4 0 16 6 26 14 16 12
17 16 6 30 -7 9 -22 16 -32 16 -16 0 -19 -7 -18 -47z m34 7 c-5 -8 -11 -8 -17
-2 -6 6 -7 16 -3 22 5 8 11 8 17 2 6 -6 7 -16 3 -22z"/>
<path d="M1684 766 c1 -49 29 -72 52 -42 16 23 19 66 4 66 -5 0 -10 -13 -10
-29 0 -56 -35 -48 -43 9 -4 34 -5 34 -3 -4z"/>
<path d="M1782 758 c2 -35 7 -43 23 -44 15 -1 16 0 3 3 -10 3 -18 10 -18 18 0
7 8 16 18 18 16 4 16 5 0 6 -10 0 -18 7 -18 15 0 8 8 17 18 19 12 3 11 5 -6 6
-21 1 -23 -3 -20 -41z"/>
<path d="M1860 755 c0 -46 7 -53 41 -35 36 20 18 80 -23 80 -15 0 -18 -8 -18
-45z m34 29 c31 -12 14 -64 -20 -64 -2 0 -4 16 -4 35 0 38 0 38 24 29z"/>
<path d="M1950 757 c0 -39 2 -43 28 -44 25 -2 26 -1 5 7 -27 11 -30 27 -5 33
16 4 16 5 0 6 -10 0 -18 7 -18 15 0 8 8 17 18 19 13 4 11 5 -5 6 -21 1 -23 -4
-23 -42z"/>
<path d="M2031 755 l1 -50 8 40 c5 22 4 44 -1 50 -5 5 -9 -11 -8 -40z"/>
<path d="M2080 774 c0 -22 -2 -25 -15 -14 -21 18 -19 3 5 -27 l20 -26 0 47 c0
25 -2 46 -5 46 -3 0 -5 -12 -5 -26z"/>
<path d="M2241 764 c-1 -41 10 -55 42 -53 7 0 3 4 -8 8 -13 5 -22 21 -26 47
l-6 39 -2 -41z"/>
<path d="M2315 788 c-7 -24 0 -71 12 -75 7 -3 9 3 6 16 -3 13 1 21 14 24 16 4
16 5 1 6 -10 0 -18 7 -18 15 0 8 8 17 18 19 12 4 11 5 -6 6 -12 0 -24 -5 -27
-11z"/>
<path d="M2402 788 c-28 -28 -2 -88 33 -74 21 8 19 46 -2 45 -11 0 -13 -3 -5
-6 15 -6 16 -36 0 -31 -6 2 -16 12 -22 22 -9 14 -6 21 13 37 14 12 18 19 9 19
-8 0 -19 -5 -26 -12z"/>
<path d="M2487 758 c-20 -50 -13 -65 7 -17 l15 34 12 -33 c15 -44 24 -33 9 12
-16 51 -25 51 -43 4z"/>
<path d="M2571 753 c1 -27 4 -38 6 -25 5 26 12 28 28 6 10 -15 12 -12 13 17 1
33 -11 49 -35 49 -9 0 -13 -15 -12 -47z m37 19 c2 -7 -3 -12 -12 -12 -9 0 -16
7 -16 16 0 17 22 14 28 -4z"/>
<path d="M2169 785 c-3 -5 -5 -23 -5 -40 1 -25 6 -30 26 -32 14 -1 17 1 8 3
-11 4 -18 18 -20 42 -2 20 -6 33 -9 27z"/>
<path d="M1940 530 c-8 -5 -10 -10 -5 -10 6 0 17 5 25 10 8 5 11 10 5 10 -5 0
-17 -5 -25 -10z"/>
<path d="M2226 521 c-18 -7 -18 -8 -3 -14 9 -3 17 -2 17 3 0 5 8 11 18 13 11
3 12 5 2 5 -8 0 -24 -3 -34 -7z"/>
<path d="M2310 511 c-12 -24 -13 -34 -1 -27 9 6 22 46 15 46 -2 0 -8 -9 -14
-19z"/>
<path d="M2363 483 c9 -2 23 -2 30 0 6 3 -1 5 -18 5 -16 0 -22 -2 -12 -5z"/>
<path d="M29 423 c-1 -4 -1 -12 0 -16 1 -4 -6 -10 -14 -13 -21 -8 -19 -24 3
-24 10 0 27 -7 38 -15 12 -8 24 -11 28 -8 3 3 6 1 6 -5 0 -7 7 -12 15 -12 20
0 7 30 -14 31 -10 0 -11 2 -3 6 6 2 10 8 7 12 -2 5 7 6 21 3 16 -3 23 -9 20
-18 -3 -8 1 -14 9 -14 8 0 12 -6 9 -14 -4 -11 0 -13 17 -9 13 4 18 8 12 10 -7
3 -9 11 -6 19 3 7 8 12 12 10 4 -3 13 -1 21 5 12 7 11 9 -5 10 -11 1 -26 1
-33 0 -14 -2 -12 20 3 31 6 4 2 8 -7 8 -10 0 -18 -5 -18 -10 0 -11 -41 -7 -62
7 -18 11 -58 15 -59 6z"/>
<path d="M385 420 c3 -5 8 -10 11 -10 2 0 4 5 4 10 0 6 -5 10 -11 10 -5 0 -7
-4 -4 -10z"/>
<path d="M340 409 c0 -7 -12 -10 -30 -7 -37 6 -39 -7 -2 -26 19 -11 22 -15 10
-16 -10 0 -18 -4 -18 -8 0 -5 24 -8 53 -8 50 1 54 4 49 35 -1 5 -11 7 -21 4
-16 -4 -19 -1 -14 16 4 15 1 21 -11 21 -9 0 -16 -5 -16 -11z"/>
<path d="M487 369 c7 -7 15 -10 18 -7 3 3 -2 9 -12 12 -14 6 -15 5 -6 -5z"/>
<path d="M445 360 c-3 -5 -1 -10 4 -10 6 0 11 5 11 10 0 6 -2 10 -4 10 -3 0
-8 -4 -11 -10z"/>
<path d="M36 336 c10 -8 21 -12 24 -10 5 6 -21 24 -34 24 -6 0 -1 -6 10 -14z"/>
<path d="M2 329 c2 -7 12 -13 21 -15 23 -3 21 3 -4 17 -17 8 -20 8 -17 -2z"/>
<path d="M420 330 c-13 -8 -13 -10 2 -10 9 0 18 -4 20 -9 2 -4 12 -5 23 0 17
6 17 8 3 8 -10 1 -18 6 -18 11 0 13 -11 13 -30 0z"/>
<path d="M373 266 c2 -6 13 -12 25 -12 12 -1 19 2 17 7 -3 4 1 9 7 12 7 3 -2
5 -20 4 -19 0 -31 -5 -29 -11z"/>
</g>
</svg>
